<svg width="227" height="65" viewBox="0 0 227 65" fill="none" xmlns="http://www.w3.org/2000/svg">
<path d="M24.4 50V15H36.35C40.45 15 43.8167 15.7333 46.45 17.2C49.1167 18.6333 51.0833 20.6667 52.35 23.3C53.65 25.9 54.3 28.9667 54.3 32.5C54.3 36.0333 53.65 39.1167 52.35 41.75C51.0833 44.35 49.1167 46.3833 46.45 47.85C43.8167 49.2833 40.45 50 36.35 50H24.4ZM30.8 44.5H36.05C38.9833 44.5 41.3 44.0333 43 43.1C44.7 42.1333 45.9167 40.7667 46.65 39C47.3833 37.2 47.75 35.0333 47.75 32.5C47.75 30 47.3833 27.85 46.65 26.05C45.9167 24.25 44.7 22.8667 43 21.9C41.3 20.9333 38.9833 20.45 36.05 20.45H30.8V44.5ZM71.3469 50.6C68.8469 50.6 66.6302 50.0667 64.6969 49C62.7635 47.9333 61.2469 46.4333 60.1469 44.5C59.0469 42.5667 58.4969 40.3333 58.4969 37.8C58.4969 35.2333 59.0302 32.95 60.0969 30.95C61.1969 28.95 62.6969 27.4 64.5969 26.3C66.5302 25.1667 68.7969 24.6 71.3969 24.6C73.8302 24.6 75.9802 25.1333 77.8469 26.2C79.7135 27.2667 81.1635 28.7333 82.1969 30.6C83.2635 32.4333 83.7969 34.4833 83.7969 36.75C83.7969 37.1167 83.7802 37.5 83.7469 37.9C83.7469 38.3 83.7302 38.7167 83.6969 39.15H64.8469C64.9802 41.0833 65.6469 42.6 66.8469 43.7C68.0802 44.8 69.5635 45.35 71.2969 45.35C72.5969 45.35 73.6802 45.0667 74.5469 44.5C75.4469 43.9 76.1135 43.1333 76.5469 42.2H83.0469C82.5802 43.7667 81.7969 45.2 80.6969 46.5C79.6302 47.7667 78.2969 48.7667 76.6969 49.5C75.1302 50.2333 73.3469 50.6 71.3469 50.6ZM71.3969 29.8C69.8302 29.8 68.4469 30.25 67.2469 31.15C66.0469 32.0167 65.2802 33.35 64.9469 35.15H77.2969C77.1969 33.5167 76.5969 32.2167 75.4969 31.25C74.3969 30.2833 73.0302 29.8 71.3969 29.8ZM94.4031 50L85.3031 25.2H92.0031L98.3031 43.95L104.603 25.2H111.303L102.153 50H94.4031ZM130.84 50.6C127.307 50.6 124.273 49.85 121.74 48.35C119.207 46.8167 117.257 44.7 115.89 42C114.523 39.2667 113.84 36.1167 113.84 32.55C113.84 28.9833 114.523 25.8333 115.89 23.1C117.257 20.3667 119.207 18.2333 121.74 16.7C124.273 15.1667 127.307 14.4 130.84 14.4C135.04 14.4 138.473 15.45 141.14 17.55C143.84 19.6167 145.523 22.5333 146.19 26.3H139.14C138.707 24.4 137.773 22.9167 136.34 21.85C134.94 20.75 133.073 20.2 130.74 20.2C127.507 20.2 124.973 21.3 123.14 23.5C121.307 25.7 120.39 28.7167 120.39 32.55C120.39 36.3833 121.307 39.4 123.14 41.6C124.973 43.7667 127.507 44.85 130.74 44.85C133.073 44.85 134.94 44.35 136.34 43.35C137.773 42.3167 138.707 40.9 139.14 39.1H146.19C145.523 42.7 143.84 45.5167 141.14 47.55C138.473 49.5833 135.04 50.6 130.84 50.6ZM151.205 50V14H157.605V29C158.438 27.6333 159.555 26.5667 160.955 25.8C162.388 25 164.022 24.6 165.855 24.6C168.922 24.6 171.288 25.5667 172.955 27.5C174.655 29.4333 175.505 32.2667 175.505 36V50H169.155V36.6C169.155 34.4667 168.722 32.8333 167.855 31.7C167.022 30.5667 165.688 30 163.855 30C162.055 30 160.555 30.6333 159.355 31.9C158.188 33.1667 157.605 34.9333 157.605 37.2V50H151.205ZM189.675 50.6C187.542 50.6 185.792 50.2667 184.425 49.6C183.058 48.9 182.042 47.9833 181.375 46.85C180.708 45.7167 180.375 44.4667 180.375 43.1C180.375 40.8 181.275 38.9333 183.075 37.5C184.875 36.0667 187.575 35.35 191.175 35.35H197.475V34.75C197.475 33.05 196.992 31.8 196.025 31C195.058 30.2 193.858 29.8 192.425 29.8C191.125 29.8 189.992 30.1167 189.025 30.75C188.058 31.35 187.458 32.25 187.225 33.45H180.975C181.142 31.65 181.742 30.0833 182.775 28.75C183.842 27.4167 185.208 26.4 186.875 25.7C188.542 24.9667 190.408 24.6 192.475 24.6C196.008 24.6 198.792 25.4833 200.825 27.25C202.858 29.0167 203.875 31.5167 203.875 34.75V50H198.425L197.825 46C197.092 47.3333 196.058 48.4333 194.725 49.3C193.425 50.1667 191.742 50.6 189.675 50.6ZM191.125 45.6C192.958 45.6 194.375 45 195.375 43.8C196.408 42.6 197.058 41.1167 197.325 39.35H191.875C190.175 39.35 188.958 39.6667 188.225 40.3C187.492 40.9 187.125 41.65 187.125 42.55C187.125 43.5167 187.492 44.2667 188.225 44.8C188.958 45.3333 189.925 45.6 191.125 45.6ZM220.191 50C217.591 50 215.507 49.3667 213.941 48.1C212.374 46.8333 211.591 44.5833 211.591 41.35V30.55H207.341V25.2H211.591L212.341 18.55H217.991V25.2H224.691V30.55H217.991V41.4C217.991 42.6 218.241 43.4333 218.741 43.9C219.274 44.3333 220.174 44.55 221.441 44.55H224.541V50H220.191Z" fill="black"/>
<path d="M15 15H0V25.5H15V15Z" fill="#D50E0E"/>
<path d="M15 25.5H0V38.25H15V25.5Z" fill="#054BFE"/>
<path d="M0 51H15V38.25H0V51Z" fill="#45CC05"/>
</svg>
